<svg width="196" height="196" viewBox="0 0 196 196" fill="none" xmlns="http://www.w3.org/2000/svg">
<path d="M4 98.0066C4 46.0911 46.0852 3.99991 98 3.99991C149.915 3.99991 192 46.0911 192 98.0066C192 149.909 149.915 192.007 98 192.007C46.0852 192.007 4 149.909 4 98.0066Z" fill="white" stroke="#7C154D" stroke-width="8"/>
<path d="M141.811 61.4467C141.467 60.4334 141.056 60.1667 140.415 59.9134C139.012 59.3934 136.636 60.18 136.636 60.18C136.636 60.18 52.523 90.42 47.7177 93.7667C46.683 94.4867 46.3364 94.9133 46.1644 95.4067C45.3337 97.78 47.9217 98.8334 47.9217 98.8334L69.6017 105.9C69.6017 105.9 70.4097 106.02 70.6977 105.833C75.6297 102.713 120.319 74.5 122.896 73.5533C123.303 73.4333 123.604 73.5667 123.524 73.8467C122.492 77.4734 83.6777 111.967 83.6777 111.967C83.6777 111.967 83.5297 112.153 83.4364 112.367L83.3857 112.34L81.363 133.847C81.363 133.847 80.515 140.433 87.103 133.847C91.751 129.193 96.2484 125.3 98.499 123.42C105.954 128.567 113.976 134.26 117.439 137.233C119.178 138.727 120.632 138.967 121.83 138.927C125.116 138.807 126.034 135.193 126.034 135.193C126.034 135.193 141.362 73.5 141.874 65.2334C141.924 64.42 141.994 63.9133 141.999 63.3533C142.008 62.58 141.936 61.8067 141.811 61.4467Z" fill="#EE2530"/>
<path d="M98 11.9999C50.5042 11.9999 12 50.5087 12 98.0066C12 145.491 50.5042 184.007 98 184.007C145.496 184.007 184 145.491 184 98.0066C184 50.5087 145.496 11.9999 98 11.9999Z" fill="white" stroke="#EE2530" stroke-width="8"/>
<path d="M141.811 61.4467C141.467 60.4334 141.056 60.1667 140.415 59.9134C139.012 59.3934 136.636 60.18 136.636 60.18C136.636 60.18 52.523 90.42 47.7177 93.7667C46.683 94.4867 46.3364 94.9133 46.1644 95.4067C45.3337 97.78 47.9217 98.8334 47.9217 98.8334L69.6017 105.9C69.6017 105.9 70.4097 106.02 70.6977 105.833C75.6297 102.713 120.319 74.5 122.896 73.5533C123.303 73.4333 123.604 73.5667 123.524 73.8467C122.492 77.4734 83.6777 111.967 83.6777 111.967C83.6777 111.967 83.5297 112.153 83.4364 112.367L83.3857 112.34L81.363 133.847C81.363 133.847 80.515 140.433 87.103 133.847C91.751 129.193 96.2484 125.3 98.499 123.42C105.954 128.567 113.976 134.26 117.439 137.233C119.178 138.727 120.632 138.967 121.83 138.927C125.116 138.807 126.034 135.193 126.034 135.193C126.034 135.193 141.362 73.5 141.874 65.2334C141.924 64.42 141.994 63.9133 141.999 63.3533C142.008 62.58 141.936 61.8067 141.811 61.4467Z" fill="#020202"/>
</svg>
